# xmcd
#
# Track frame offsets: 
#        150
#        14405
#        33317
#        50025
#        64700
#        77465
#        107382
#        118670
#        156934
#        169547
#        179242
#        208000
#        228507
#        246250
#        255465
#
# Disc length: 3519 seconds
#
# Revision: 0
# Processed by: cddbd v1.5.1PL0 Copyright (c) Steve Scherf et al.
# Submitted via: ExactAudioCopy v0.95a5
#
DISCID=c60dbd0f
DTITLE=Lenanne Sylvester - A Tribute To Lady Day
DYEAR=1998
DGENRE=
TTITLE0=All Of Me
TTITLE1=Fine and Mellow
TTITLE2=Good Morning Heartache
TTITLE3=Willow Weep For Me
TTITLE4=They Can't Take That Away From Me
TTITLE5=Solitude
TTITLE6=Them There Eyes
TTITLE7=I Cover The Waterfront
TTITLE8=Love Me Or Leave Me
TTITLE9=Your Mother's Son-In-Law
TTITLE10=My Man
TTITLE11=Deep Song
TTITLE12=God Bless The Child
TTITLE13=What A Little Moonlight Can Do
TTITLE14=Bonus Track
EXTD=
EXTT0=
EXTT1=
EXTT2=
EXTT3=
EXTT4=
EXTT5=
EXTT6=
EXTT7=
EXTT8=
EXTT9=
EXTT10=
EXTT11=
EXTT12=
EXTT13=
EXTT14=
PLAYORDER=
